<svg width="96" height="39" xmlns="http://www.w3.org/2000/svg" xmlns:xlink="http://www.w3.org/1999/xlink" overflow="hidden"><defs><clipPath id="clip0"><rect x="577" y="39" width="96" height="39"/></clipPath></defs><g clip-path="url(#clip0)" transform="translate(-577 -39)"><path d="M111.14 59.4547 106.151 59.4547 106.977 56.1592 96.9822 56.1592 96.1592 59.4547 91.3328 59.4547 91.3328 58.7773C91.4073 58.4081 91.4716 58.0186 91.5631 57.602 92.4437 54.0457 94.7773 50.5301 98.818 50.5301 100.413 50.5301 102.002 51.1397 101.785 53.348L107.732 53.348C107.966 52.3319 108.359 50.5605 107.238 48.945 105.968 47.1905 103.417 46.486 100.105 46.486 97.7511 46.486 94.3065 46.862 91.3328 48.8061L91.3328 30.8552 111.14 30.8552ZM99.4513 64.2879C98.3539 64.4996 97.2396 64.613 96.1219 64.6266 93.2667 64.6266 91.2786 63.2989 91.2379 60.2032L100.464 60.2032ZM88.0373 47.956 88.0373 52.0542C86.8034 53.7582 85.9079 55.6826 85.3988 57.724 85.2491 58.292 85.1438 58.8705 85.0838 59.4547L82.1744 59.4547 84.6605 47.6511 76.2879 47.6511 68.7959 59.4615 68.2473 59.4615 68.2473 30.8654 88.0474 30.8654ZM76.9822 59.4547 74.0017 59.4547 78.5097 52.3624ZM64.9585 47.6241 60.0034 47.6241 56.6164 59.4547 51.3531 59.4547C54.0288 58.4657 55.6579 56.5758 56.1626 53.768 56.5758 51.5868 56.3793 50.1541 55.4852 49.0771 54.1507 47.4784 51.475 47.6173 49.1008 47.6173L45.1685 47.6173 45.1685 30.8654 64.9517 30.8654ZM61.7917 59.4547 63.8747 52.0542 63.9492 59.4547ZM47.3836 56.6435 47.3836 56.6435C47.1905 56.6435 46.9975 56.6672 46.7773 56.6672 46.4894 56.6672 46.2625 56.6672 46.0491 56.6672L44.7824 56.6672 45.3683 54.503 45.6461 53.4259 46.3235 50.906C46.6181 50.906 46.906 50.906 47.1837 50.906L48.1626 50.906C49.8561 50.906 50.8959 51.0009 51.282 51.5394 51.5766 51.9458 51.5394 52.6435 51.1905 53.707 50.5944 55.536 49.8357 56.4674 47.4039 56.6537M41.9001 48.6842 41.5885 49.7003 38.757 59.1262 38.6452 59.4649 29.304 59.4649 28.5758 57.917 38.6113 47.6511 32.1761 47.6511 24.3184 56.1185 26.862 47.6511 22.0931 47.6511 22.0931 30.8654 41.8798 30.8654ZM90.5809 30.1033 90.5809 49.3446C89.9357 49.8577 89.3406 50.4305 88.8027 51.055L88.8027 30.1033 67.492 30.1033 67.492 47.6241 65.7273 47.6241 65.7273 30.1033 44.4098 30.1033 44.4098 47.6511 42.6486 47.6511 42.6486 30.1033 21.3379 30.1033 21.3379 50.1033 15.8916 68.2371 20.6774 68.2371 23.0787 60.2066 23.7561 60.2066 27.7223 68.2371 33.5309 68.2371 29.6664 60.2066 38.4014 60.2066 35.9763 68.2371 41.2058 68.2371 43.597 60.2303 44.7417 60.2303 44.7417 60.2066 56.3793 60.2066 54.0728 68.2134 59.3429 68.2134 61.5783 60.2066 63.9492 60.2066 64.0135 68.2134 68.4335 68.2134 73.514 60.2066 76.8366 60.2066 75.1228 68.2134 80.3048 68.2134 81.9983 60.2066 84.9992 60.2066C84.8806 62.6892 85.514 64.9483 87.16 66.4623 89.1719 68.3082 92.2608 68.6605 94.5436 68.6605 97.7904 68.6215 101.023 68.2249 104.183 67.4784L105.978 60.2066 111.902 60.2066 111.902 30.1033Z" fill="#FFFFFF" transform="matrix(1 0 0 1.0085 561.108 8.69848)"/></g></svg>